PathFileType	4	(X/Y/Z)	C:/Users/beibeiliu/ov580/test_trc/User3\sequence.13_training_dense_left.trc
DataRate	CameraRate	NumFrames	NumMarkers	Units	OrigDataRate	OrigDataStartFrame	OrigNumFrames
120	120	9	19	mm	120	82	109
Frame#	Time	ThumbCMC			ThumbMCP			ThumbIP			ThumbTip			IndexMCP			IndexPIP			IndexTip			MiddleMCP			MiddlePIP			MiddleTip			RingMCP			RingPIP			RingTip			PinkyMCP			PinkyPIP			PinkyTip			BackHand1			BackHand2			BackHand3	
		X0	Y0	Z0	X1	Y1	Z1	X2	Y2	Z2	X3	Y3	Z3	X4	Y4	Z4	X5	Y5	Z5	X6	Y6	Z6	X7	Y7	Z7	X8	Y8	Z8	X9	Y9	Z9	X10	Y10	Z10	X11	Y11	Z11	X12	Y12	Z12	X13	Y13	Z13	X14	Y14	Z14	X15	Y15	Z15	X16	Y16	Z16	X17	Y17	Z17	X18	Y18	Z18	
81	0.675	-254.283	-47.7755	12.0536	-243.561	-25.8921	-16.8802	-226.437	-15.409	-40.9244	-205.593	-9.31858	-51.1773	-235.952	-83.2591	-53.6751	-234.584	-84.0152	-80.0228	-233.007	-80.8589	-107.463	-209.496	-84.1648	-56.8533	-203.227	-75.5172	-85.6217	-191.297	-52.4806	-107.33	-189.792	-71.4726	-44.172	-182.126	-47.779	-61.7414	-195.812	-17.1832	-45.465	-175.123	-75.2748	-27.1879	-164.626	-74.1674	-45.6236	-150.748	-65.5587	-66.5088	-199.246	-88.6624	8.63622	-203.566	-85.7656	36.583	-235.282	-85.9701	14.297	
82	0.683333	-257.149	-55.5064	19.7163	-252.332	-40.3328	-10.3981	-240.356	-35.5152	-42.9841	-223.456	-35.3153	-59.22	-254.588	-104.488	-39.2002	-259.575	-108.352	-65.0203	-258.853	-108.321	-91.3762	-227.153	-105.615	-43.5219	-226.259	-100.759	-79.4427	-221.335	-80.3329	-105.225	-206.796	-93.2169	-41.9867	-201.365	-74.196	-64.9104	-210.482	-41.8051	-61.113	-187.505	-90.6295	-21.5542	-178.93	-96.148	-45.0494	-173.117	-91.549	-68.3055	-209.432	-98.9961	12.8687	-208.026	-90.1768	43.2607	-238.737	-93.2214	29.5391	
83	0.691667	-257.753	-55.2148	27.2522	-259.181	-47.975	-10.9255	-252.055	-53.3572	-40.4228	-239.805	-58.2061	-62.7529	-275.921	-114.834	-19.5063	-285.126	-124.199	-46.0666	-291.079	-125.452	-71.7141	-250.447	-125.358	-32.1457	-253.684	-125.197	-62.3652	-253.013	-111.098	-91.5289	-229.082	-114.159	-30.9746	-226.044	-103.414	-59.9363	-223.526	-70.1471	-68.747	-204.353	-112.92	-17.3532	-201.169	-121.606	-39.5101	-205.309	-122.382	-66.0339	-219.021	-108.196	22.1844	-210.576	-93.6631	48.6426	-248.693	-94.5047	39.4614	
84	0.7	-261.886	-49.5583	24.7732	-261.058	-47.3272	-13.0932	-260.091	-53.9496	-43.7818	-249.21	-66.3073	-62.0531	-298.545	-105.001	-7.29519	-312.491	-114.083	-36.2885	-321.302	-112.921	-57.9748	-282.642	-120.507	-20.4286	-286.896	-125.848	-47.7718	-287.218	-114.666	-82.1141	-254.72	-120.81	-23.7555	-253.716	-110.929	-54.7786	-243.178	-84.6708	-68.4722	-235.164	-125.333	-12.0526	-233.54	-134.908	-33.6899	-240.164	-136.535	-57.298	-239.02	-113.119	30.5638	-224.403	-94.0319	54.2105	-261.932	-85.6573	46.0901	
85	0.708333	-250.37	-32.7853	22.8006	-249.711	-37.4872	-15.0449	-249.472	-47.6011	-42.975	-246.859	-62.7427	-63.6117	-309.897	-72.7259	-9.12556	-323.577	-74.0121	-30.8355	-332.864	-73.1374	-57.4809	-301.375	-92.1083	-15.4092	-310.011	-93.1812	-47.9515	-305.218	-87.741	-78.1256	-276.45	-106.306	-21.0235	-274.604	-98.1717	-51.0062	-250.134	-81.51	-67.501	-259.962	-119.605	-11.3222	-265.141	-123.258	-30.6864	-269.531	-126.49	-58.8341	-255.457	-99.3228	33.644	-239.885	-88.5598	53.4496	-264.838	-63.7257	47.7428	
86	0.716667	-231.905	-21.7032	20.8052	-230.959	-24.1287	-19.0618	-232.531	-31.6689	-47.6371	-238.134	-52.4166	-68.6683	-300.148	-34.2366	-12.535	-315.517	-25.1689	-37.0503	-323.226	-23.1034	-63.5163	-300.082	-58.5917	-18.2171	-308.589	-53.5344	-47.6578	-301.927	-51.7358	-85.6437	-283.821	-74.2533	-23.2143	-275.131	-72.5282	-55.0515	-250.809	-65.8655	-67.0668	-273.449	-91.4328	-12.0242	-282.348	-92.6438	-35.6646	-284.881	-97.7786	-58.4985	-260.988	-78.2199	31.6635	-245.764	-74.3332	51.9335	-259.95	-41.8556	44.9442	
87	0.725	-210.639	-11.5351	18.0695	-208.257	-13.3782	-22.1886	-215.607	-24.263	-48.6076	-220.102	-36.2571	-71.2831	-279.993	0.00201829	-18.762	-288.485	9.93596	-41.1634	-294.6	18.0768	-66.5119	-287.054	-20.3796	-25.1369	-291.52	-13.9842	-54.0851	-283.045	-14.002	-85.6693	-277.112	-47.6318	-27.7583	-268.392	-43.7131	-57.4397	-237.443	-45.2634	-69.4214	-271.559	-65.1532	-16.2024	-281.913	-66.4359	-40.4903	-284.958	-66.3247	-62.4344	-259.986	-56.9667	27.936	-239.192	-61.6076	50.61	-245.605	-24.6445	41.2953	
88	0.733333	-191.15	-6.75112	15.9307	-187.546	-9.49638	-20.5995	-194.449	-14.3064	-54.4381	-206.772	-29.7266	-71.1932	-250.424	20.8313	-19.7539	-255.955	38.0608	-46.4121	-260.676	43.6192	-67.0002	-265.668	2.32551	-31.4903	-265.868	9.85346	-60.826	-255.988	11.9827	-89.0661	-260.751	-25.0066	-30.3704	-252.022	-21.9889	-59.6104	-224.215	-32.7417	-72.131	-262.062	-42.1058	-19.6522	-270.053	-39.634	-40.6208	-275.975	-40.9092	-64.0415	-248.1	-36.1479	25.5202	-234.127	-48.1535	46.4932	-228.863	-8.99313	34.9986	
89	0.741667	-173.673	-9.90975	15.2013	-169.656	-12.4031	-20.6929	-178.056	-18.0947	-51.336	-186.801	-28.0961	-69.4103	-223.899	30.5011	-23.6152	-226.45	46.8617	-48.9683	-227.07	58.9397	-71.7908	-241.641	15.1462	-34.9787	-238.344	23.2273	-64.0765	-231.049	18.8129	-94.7883	-242.272	-9.50368	-34.57	-234.686	-14.4911	-64.1576	-208.109	-28.1536	-74.4081	-250.174	-32.4962	-20.8736	-256.747	-25.1576	-44.1361	-259.905	-20.4155	-68.5929	-236.862	-27.098	21.5278	-225.688	-39.9722	45.4164	-211.051	-2.17575	33.7686	
